PathFileType	4	(X/Y/Z)	AB12\squats_1.trc
DataRate	CameraRate	NumFrames	NumMarkers	Units	OrigDataRate	OrigDataStartFrame	OrigNumFrames
200.000000	200.000000	4	35	mm	200.000000	190	304
Frame#	Time	C7			LSHO			STRN			LASI			RASI			LPSI			RPSI			LGTR			RGTR			LTHC			LTHL			LTHR			LKNE			LMKNE			LSHC			LSHL			LSHR			LANK			LMANK			LMT1			LMT5			LCAL			RTHC			RTHL			RTHR			RKNE			RMKNE			RSHC			RSHL			RSHR			RANK			RMANK			RMT1			RMT5			RCAL			
		X1	Y1	Z1	X2	Y2	Z2	X3	Y3	Z3	X4	Y4	Z4	X5	Y5	Z5	X6	Y6	Z6	X7	Y7	Z7	X8	Y8	Z8	X9	Y9	Z9	X10	Y10	Z10	X11	Y11	Z11	X12	Y12	Z12	X13	Y13	Z13	X14	Y14	Z14	X15	Y15	Z15	X16	Y16	Z16	X17	Y17	Z17	X18	Y18	Z18	X19	Y19	Z19	X20	Y20	Z20	X21	Y21	Z21	X22	Y22	Z22	X23	Y23	Z23	X24	Y24	Z24	X25	Y25	Z25	X26	Y26	Z26	X27	Y27	Z27	X28	Y28	Z28	X29	Y29	Z29	X30	Y30	Z30	X31	Y31	Z31	X32	Y32	Z32	X33	Y33	Z33	X34	Y34	Z34	X35	Y35	Z35	

191	21.94	-3553.597011352317	972.2415085005175	2469.270053683085	-3607.108578565711	929.2908531750231	2591.330459445544	-3627.455063398149	833.2712540980027	2478.439059849947	-3399.211325166567	600.977757881639	2633.673489680164	-3394.795311598324	604.1468622405825	2355.709992307978	-3207.433835062713	687.4637367501142	2528.054313291383	-3201.416497823604	678.8937963381655	2439.664021132824	-3281.322482521661	602.4018871446493	2715.395195472446	-3294.045493450013	561.1908007603287	2275.67842925484	-3456.341895976429	477.7802268578823	2717.903982030338	-3578.144243483065	516.7912231283547	2645.318007124969	-3523.286004139828	358.4795484964469	2635.582486235633	-3638.204718831797	381.0230535876447	2728.214251211274	-3656.963735453845	367.6264201512267	2589.997028072359	-3538.587693716086	257.7460709578628	2727.499623710322	-3534.752404581237	163.0808707011827	2677.932038296342	-3441.94866365277	192.7615829136921	2652.152261201373	-3413.908858759913	87.81895377626302	2704.032878941801	-3428.253405816039	77.20485518647499	2616.145290226629	-3547.828541663784	44.81196564857755	2663.360584192414	-3507.511275741378	42.23492026341715	2745.983378662762	-3334.62750778987	66.49919527260548	2670.342736892982	-3540.921250566406	349.364923940848	2385.530296880891	-3452.209800502771	436.6766663631838	2291.694717938891	-3563.248054933654	518.9731263803826	2360.891453515739	-3625.757254331762	371.887456185298	2288.163328941261	-3651.010697928677	343.8770280251762	2420.214939468589	-3421.48801985519	178.3702656431276	2355.777393714449	-3519.161554012569	260.02684792313	2291.075049984655	-3525.391290878272	162.1489675782553	2333.754591692168	-3398.974611875078	91.46901174894332	2305.509094475678	-3420.421752942872	80.00473153664473	2389.72388848194	-3531.18494697099	50.52059378671314	2341.868096330591	-3494.302258151347	49.52040080920707	2268.929831912139	-3324.391557981082	71.92610360049248	2350.187596321676	
192	21.945	-3553.15361440734	976.3602218714582	2469.30794121913	-3606.69301680693	933.469874194178	2591.381227441736	-3627.263019555042	837.4917745012624	2478.389111695836	-3399.379742183656	603.8253586349409	2633.600382515439	-3395.130103851151	607.2624827199475	2355.545458763742	-3207.898625501966	690.7477106237239	2527.931922084576	-3201.888055270788	682.2342611485257	2439.4771130175	-3281.635981082988	605.3008020937576	2715.163418048174	-3294.550716186458	564.1451745825817	2275.486758920028	-3456.462921140434	479.5372764587252	2717.73233631491	-3578.617511240026	517.9029423882529	2645.401819352902	-3522.784048950381	359.9355588753082	2635.308756256627	-3637.818424087766	381.5819771584887	2727.913155685661	-3656.545740098159	368.1977202484268	2589.898548303713	-3538.289921263119	257.9996090828726	2727.391595264121	-3534.579454954734	163.2925433674129	2677.921762974633	-3441.776121984835	192.8304018696932	2652.106801110983	-3413.889232037956	87.82896878035426	2704.042988442571	-3428.222333565996	77.22294270039274	2616.146324024208	-3547.810418125162	44.82679344606988	2663.373422219535	-3507.498735753514	42.21131156784466	2745.985876377546	-3334.612452736873	66.48471735806496	2670.363585735358	-3540.544341808978	350.6116813348289	2385.813783837241	-3452.359553153357	438.52122920972	2291.731275121471	-3563.876093128542	520.1158565307212	2360.829254971669	-3625.558488453343	372.4332596482044	2288.450056476531	-3650.548365587193	344.3822680054739	2420.437963144189	-3421.325201799873	178.422825112888	2355.796790754679	-3518.935789645156	260.2229205658271	2291.213455239831	-3525.281700575838	162.3194075574829	2333.834884136827	-3398.93745216863	91.46957926135289	2305.461843473037	-3420.365269941157	79.98924060845506	2389.719966527094	-3531.168761583066	50.54417458143546	2341.859973102264	-3494.303624281607	49.53226573759795	2268.917783234926	-3324.3650634416	71.91637247392282	2350.135955952214	
193	21.95	-3552.701508405458	980.5227946286384	2469.350395334001	-3606.268744342992	937.6927532608671	2591.436562286271	-3627.067511926332	841.7630917349485	2478.334873871745	-3399.550806181508	606.7229221791756	2633.527920755812	-3395.482406084044	610.4348295381077	2355.380249529219	-3208.371159667488	694.0678005529212	2527.810470704023	-3202.368423657163	685.6148144273709	2439.291480682887	-3281.956721197682	608.2282972906647	2714.928095183524	-3295.077122494771	567.1443987662994	2275.299554348933	-3456.580912519713	481.3133980886973	2717.570025358866	-3579.092769549683	519.0273154327303	2645.510505690647	-3522.274892734061	361.4143711798241	2635.046958122241	-3637.415019561693	382.1494136901447	2727.634450914916	-3656.115650742721	368.7822192853674	2589.823312381279	-3537.979692256118	258.2554606860734	2727.293959670703	-3534.399463250009	163.5080442309587	2677.919189322163	-3441.595300484813	192.8981866951449	2652.063691767021	-3413.86744186221	87.83697295898233	2704.054024409658	-3428.190420229821	77.24076299242803	2616.148932915612	-3547.791891265752	44.84060939308365	2663.385808227662	-3507.486630680654	42.18865627666391	2745.989452251624	-3334.596308428744	66.46957526182833	2670.383006166303	-3540.168992141902	351.8758288308237	2386.089141994201	-3452.509846003825	440.3998653174076	2291.757521760261	-3564.511902259972	521.2760200741537	2360.757321074359	-3625.342645942909	372.995719227344	2288.725426839997	-3650.076287958671	344.9027206402173	2420.644605992034	-3421.1548044163	178.4799480196124	2355.807999190941	-3518.697636797559	260.4248794937982	2291.342237904772	-3525.167187140748	162.4956701870202	2333.906764233354	-3398.899825841802	91.46964983226916	2305.410752013163	-3420.30880119779	79.97809035988412	2389.713972491232	-3531.15179474976	50.56820863656254	2341.849982607085	-3494.304810911963	49.54334073620612	2268.904560641869	-3324.337410828681	71.90322171391044	2350.08408156258	
194	21.955	-3552.240901409188	984.7271988044446	2469.397617755767	-3605.835969229661	941.9574625101911	2591.49666575314	-3626.869281832753	846.083544965576	2478.276372628806	-3399.725007088192	609.6712389794515	2633.456322198413	-3395.853254593371	613.6631527865364	2355.214802181886	-3208.85069331417	697.4233667675488	2527.689171674763	-3202.857705306305	689.0342859230856	2439.106745195835	-3282.283828687688	611.1838708656336	2714.688632035275	-3295.625317519659	570.1879377024919	2275.116930699211	-3456.694872567372	483.1083463831633	2717.417025388087	-3579.568902267796	520.1639747943174	2645.643998039411	-3521.757889759595	362.9158630682515	2634.797963366458	-3636.993735187549	382.7255775158415	2727.379083999585	-3655.672114980444	369.380206255699	2589.772076802599	-3537.656689205925	258.5136265640746	2727.207267213378	-3534.212545530739	163.7274965229458	2677.923873045766	-3441.405744864167	192.9649914087153	2652.023352333938	-3413.843175767812	87.84276642684397	2704.066144563809	-3428.157501392959	77.25826583910657	2616.153369719416	-3547.772887609728	44.85354687963969	2663.397704108533	-3507.474991634473	42.16717974314898	2745.99420592137	-3334.57887078535	66.45359970527866	2670.401059469472	-3539.79381931521	353.1567548511847	2386.355457514534	-3452.660051219753	442.3121997665605	2291.773607233403	-3565.154899456476	522.4534034846353	2360.676209211502	-3625.108768153607	373.5747086749402	2288.989820636604	-3649.593651966928	345.4385774548859	2420.834964095035	-3420.977013512387	178.5410944871588	2355.811464118975	-3518.446570951065	260.6329533264202	2291.461437084499	-3525.046911661878	162.67763702333	2333.970336398473	-3398.861740172785	91.46917283406219	2305.356204862028	-3420.252467186148	79.97162116305539	2389.705619217986	-3531.134010153206	50.59258847457194	2341.838084629272	-3494.305598284962	49.55343276717426	2268.890136144947	-3324.30857035904	71.88643647672367	2350.031953411917	
